<svg xmlns="http://www.w3.org/2000/svg" width="73.055" height="19.992" viewBox="0 0 73.055 19.992">
  <g id="alcon-vector-logo" transform="translate(131.8 -192.4)">
    <path id="Контур_8" data-name="Контур 8" d="M-59.014,201.361a5.22,5.22,0,0,0-.889-1.851,4.439,4.439,0,0,0-1.619-1.3,5.155,5.155,0,0,0-2.386-.5,5.146,5.146,0,0,0-2.569.694,3.152,3.152,0,0,0-.962.767,2.032,2.032,0,0,0-.268.341v-1.425h-4.761v13.88h4.882v-7.537a3.058,3.058,0,0,1,.158-1.035,2.387,2.387,0,0,1,1.071-1.425,1.758,1.758,0,0,1,.925-.195,1.956,1.956,0,0,1,.889.195,1.334,1.334,0,0,1,.536.536,2.526,2.526,0,0,1,.268.84,4.937,4.937,0,0,1,.073,1.035v7.573h4.919v-8.523a7.058,7.058,0,0,0-.268-2.07Zm-19.761,3.653a2.962,2.962,0,0,1-2.959,2.959,2.962,2.962,0,0,1-2.959-2.959,2.962,2.962,0,0,1,2.959-2.959,2.946,2.946,0,0,1,2.959,2.959Zm-2.959-7.391a7.382,7.382,0,0,0-5.223,2.167,7.37,7.37,0,0,0-2.155,5.223,7.382,7.382,0,0,0,2.167,5.223,7.37,7.37,0,0,0,5.223,2.155A7.384,7.384,0,0,0-74.343,205a7.392,7.392,0,0,0-7.391-7.378Zm-13.381,10.313a2.963,2.963,0,0,1-2.533-1.437,2.953,2.953,0,0,1-.073-2.91,2.953,2.953,0,0,1,2.459-1.558,2.955,2.955,0,0,1,2.606,1.3l2.959-3.385a7.323,7.323,0,0,0-5.418-2.35,7.373,7.373,0,0,0-7.378,7.378,7.381,7.381,0,0,0,7.378,7.378,7.413,7.413,0,0,0,5.382-2.3l-2.886-3.507a2.954,2.954,0,0,1-2.5,1.388ZM-123.569,192.4l-8.231,19.53h5.54l1.425-3.726h7.074l1.5,3.726h5.613L-118.8,192.4Zm4.347,11.652h-4.152l2.082-5.649ZM-109.3,192.4h4.955v19.53H-109.3Zm0,0" fill="#11337f"/>
  </g>
</svg>
