<svg id="Bausch___Lomb-Logo.wine" data-name="Bausch_&amp;_Lomb-Logo.wine" xmlns="http://www.w3.org/2000/svg" width="253.145" height="19.958" viewBox="0 0 253.145 19.958">
  <path id="Контур_9" data-name="Контур 9" d="M9.079,19.643H0V.317H8.444c4.051,0,6.724,1.933,6.724,5.188a4.427,4.427,0,0,1-2.911,4.13,4.63,4.63,0,0,1,3.917,4.526c0,3.469-2.753,5.482-7.1,5.482ZM7.015,4.632H6.036v3.6h.979c1.747,0,2.646-.61,2.646-1.883,0-1.3-.952-1.72-2.646-1.72Zm.98,7.1H6.036v3.6H8c1.8,0,2.461-.689,2.461-1.878C10.457,12.282,9.582,11.728,8,11.728Zm26.1,7.915-1.032-3.522H27.4l-1.031,3.522H20.2L26.895.317h6.989l6.7,19.326ZM30.23,6.562l-1.456,4.9h2.911Zm24.155,13.4c-5.349,0-9.371-2.751-9.371-9.21V.317h6.459v11.1c0,2.086,1.114,3.41,2.913,3.41S57.3,13.5,57.3,11.414V.317h6.46V10.748c0,6.459-4.027,9.21-9.372,9.21Zm22.618,0a11.791,11.791,0,0,1-7.675-2.7l2.568-4.1a7.954,7.954,0,0,0,5.029,2.1c.927,0,1.588-.4,1.588-1.063,0-.925-.74-1.269-3.1-1.986-3.521-1.084-5.3-2.594-5.3-5.771C70.12,2.249,73.4,0,78.089,0a10.836,10.836,0,0,1,6.273,1.958l-2.54,4.21a6.574,6.574,0,0,0-3.971-1.454c-1.218,0-1.669.529-1.669,1.083,0,.609.451.981,2.993,1.721,3.492,1,5.4,2.355,5.4,5.982C84.573,17.367,81.663,19.958,77,19.958Zm23.04,0c-5.876,0-10.086-4.127-10.086-9.9A9.875,9.875,0,0,1,100.147,0a10,10,0,0,1,6.83,2.755L103.8,7.068a5.079,5.079,0,0,0-3.786-1.8c-2.145,0-3.734,1.855-3.734,4.634s1.537,4.788,4.107,4.788A5.721,5.721,0,0,0,104.277,13l3.1,4.209a10.3,10.3,0,0,1-7.335,2.75Zm24.792-.315V12.892h-4.869v6.751h-6.458V.317h6.458V7.439h4.869V.317H131.3V19.643Zm42.853,0V.317h6.2v14.4h6.327v4.924Zm26.462.315c-6.065,0-10.38-4.182-10.38-9.951S188.137,0,194.2,0s10.377,4.184,10.377,9.952-4.371,10.006-10.43,10.006Zm0-14.823c-2.357,0-4.051,2.038-4.051,4.817s1.747,4.872,4.1,4.872,4.047-2.037,4.047-4.817S196.5,5.136,194.149,5.136ZM224.4,19.643V10.22l-2.993,5.612h-2.94L215.4,10.22v9.423h-6.087V.317h6.271l4.4,7.708L224.051.317h6.8V19.643Zm21.652,0h-9.083V.317h8.447c4.053,0,6.728,1.933,6.728,5.188a4.427,4.427,0,0,1-2.914,4.13,4.628,4.628,0,0,1,3.915,4.526C253.145,17.629,250.394,19.643,246.052,19.643ZM243.987,4.632h-.979v3.6h.979c1.749,0,2.65-.61,2.65-1.883C246.636,5.055,245.682,4.632,243.987,4.632Zm.982,7.1h-1.961v3.6h1.961c1.8,0,2.461-.689,2.461-1.878C247.429,12.282,246.555,11.728,244.969,11.728Zm-98.6-4.883h6.245v6.274h-6.245Z" transform="translate(0 0)" fill="#0094aa"/>
  <path id="Контур_10" data-name="Контур 10" d="M301.67.653h6.243V7.181H301.67Zm0,12.8h6.243v6.527H301.67Z" transform="translate(-155.303 -0.336)" fill="#7ec49f"/>
  <path id="Контур_11" data-name="Контур 11" d="M288.155,14.106h6.557v6.273h-6.557Zm12.8,0h6.525v6.273h-6.525Z" transform="translate(-148.345 -7.262)" fill="#62c6e9"/>
</svg>
