<svg xmlns="http://www.w3.org/2000/svg" viewBox="0 0 5527.11 2000"><title>Монтажная область 1 копия</title><g id="1b28fa07-feab-48a0-bf49-1c714ae7ee77" data-name="Слой 3"><path d="M1569.5,1008.5l-.34,16v0c-8.38,199.13-172.47,358-373.66,358a372.32,372.32,0,0,1-229.63-78.78c-33.89,25.6-26,65.13-18.74,77.78,81,19,81,87,185,180s209,60,209,60c11-16,50-20,50-20,37-6,92,95,0,106-542.39-24-571.73-529.5-568.88-675.09v-.05q-.75-11.83-.75-23.86c0-206.55,167.45-374,374-374A372.26,372.26,0,0,1,1415.42,706c47.93-24.53,39.08-71.46,31.08-85.46-81-19-81-87-185-180s-209-60-209-60c-11,16-50,20-50,20-37,6-92-95,0-106C1636.5,322.5,1569.5,1008.5,1569.5,1008.5Z" style="fill:#fff"/><circle cx="1195.5" cy="1008.5" r="374" style="fill:#fff"/><path d="M1795.3,1573.57q-27.08,0-47.87-11.89a86.29,86.29,0,0,1-32.69-32.68q-11.88-20.8-11.88-47.54,0-27.07,12.21-47.87a88.38,88.38,0,0,1,33.18-32.69q21-11.88,47-11.88,27.06,0,47.7,11.88a86.65,86.65,0,0,1,32.52,32.69q11.89,20.79,11.89,47.87l-11.56,13.2q0,23.11-10.23,40.94a72.87,72.87,0,0,1-28.39,27.9Q1819.06,1573.58,1795.3,1573.57Zm1.32,67q-27.4,0-46.72-10.24a99.28,99.28,0,0,1-31.86-26.08,10.94,10.94,0,0,1-2.64-6.93,7.82,7.82,0,0,1,3.31-6.27,10.27,10.27,0,0,1,7.75-1.65,9.16,9.16,0,0,1,6.77,4.29,82.27,82.27,0,0,0,26.08,20.3q15.86,8.09,37.31,8.09,20.46,0,36.48-9.9a70.33,70.33,0,0,0,25.26-27.24q9.24-17.34,9.24-38.79v-52.5l8.91-12.21h10.9v64.71q0,26.73-11.89,48.2a89.48,89.48,0,0,1-32.35,33.84Q1822.7,1640.59,1796.62,1640.59Zm-1.32-85.51q21.12,0,37.47-9.41a67,67,0,0,0,25.59-26.08q9.24-16.66,9.24-38.13,0-21.8-9.24-38.46a67,67,0,0,0-25.59-26.08q-16.33-9.42-37.47-9.41t-37.64,9.41a66.57,66.57,0,0,0-25.75,26.08q-9.24,16.66-9.24,38.46,0,21.46,9.24,38.13a66.57,66.57,0,0,0,25.75,26.08Q1774.18,1555.08,1795.3,1555.08Z" style="fill:#fff"/><path d="M1946.83,1571.59a9.59,9.59,0,0,1-9.9-9.91V1400.9a9.48,9.48,0,0,1,2.8-7.26,10,10,0,0,1,7.1-2.64,9.15,9.15,0,0,1,9.91,9.9v160.78a9.94,9.94,0,0,1-2.65,7.1A9.49,9.49,0,0,1,1946.83,1571.59Zm-3.3-110.27q2-21.12,11.55-37.47a71.84,71.84,0,0,1,24.77-25.59,63.49,63.49,0,0,1,33.67-9.24q12.54,0,19.48,3t5.28,10.56q-1,5-4.62,6a20.88,20.88,0,0,1-8.75.16,71.93,71.93,0,0,0-11.39-.82q-16.51,0-29.38,6.93a51.46,51.46,0,0,0-20.14,19,52.4,52.4,0,0,0-7.26,27.57Z" style="fill:#fff"/><path d="M2150.86,1573.57q-26.42,0-47.38-12a87.94,87.94,0,0,1-33-33q-12.06-21-12-47,0-26.42,12-47.38a88.05,88.05,0,0,1,33-33q21-12,47.38-12t47.21,12a88.5,88.5,0,0,1,32.85,33q12,21,12,47.38,0,26.08-12,47a88.38,88.38,0,0,1-32.85,33Q2177.26,1573.58,2150.86,1573.57Zm0-18.49q20.79,0,37.14-9.74a70.57,70.57,0,0,0,25.75-26.41q9.4-16.67,9.41-37.8,0-20.81-9.41-37.47a70.57,70.57,0,0,0-25.75-26.41q-16.34-9.74-37.14-9.74a71.39,71.39,0,0,0-63.06,36.15q-9.57,16.66-9.57,37.8,0,20.79,9.57,37.47a71.39,71.39,0,0,0,63.06,36.15Z" style="fill:#fff"/><path d="M2372.71,1573.9q-23.77,0-42.59-9.74a73.07,73.07,0,0,1-29.87-28.56q-11.07-18.81-11.07-45.89V1400.9a9.91,9.91,0,1,1,19.81,0v88.81q0,21.46,8.42,35.82a53.44,53.44,0,0,0,22.78,21.46q14.37,7.11,32.52,7.1,17.84,0,32-6.93a57.87,57.87,0,0,0,22.45-18.66,45.1,45.1,0,0,0,8.25-26.57H2452a73.83,73.83,0,0,1-12.22,36.81,78.3,78.3,0,0,1-28.23,25.75Q2394.17,1573.9,2372.71,1573.9Zm72.63-2.31a9.61,9.61,0,0,1-9.9-9.91V1400.9a9.45,9.45,0,0,1,2.81-7.26,11.08,11.08,0,0,1,14.36,0,9.81,9.81,0,0,1,2.64,7.26v160.78a9.94,9.94,0,0,1-2.64,7.1A9.53,9.53,0,0,1,2445.34,1571.59Z" style="fill:#fff"/><path d="M2524.57,1648.84a9.59,9.59,0,0,1-9.9-9.9V1479.48q.66-26.09,12.71-46.39a88.7,88.7,0,0,1,32.85-32.19Q2581,1389,2606.78,1389q26.41,0,47.38,12a88.19,88.19,0,0,1,33,33q12,21,12,47.38,0,26.08-12,47a88.08,88.08,0,0,1-33,33q-21,12.06-47.38,12-23.78,0-42.75-10.24a76.34,76.34,0,0,1-29.55-27.4v103a10,10,0,0,1-2.64,7.1A9.56,9.56,0,0,1,2524.57,1648.84Zm82.21-93.76q20.8,0,37.14-9.74a71.85,71.85,0,0,0,25.92-26.41q9.57-16.67,9.57-37.47,0-21.12-9.57-37.8a71.85,71.85,0,0,0-25.92-26.41q-16.34-9.74-37.14-9.74a71.44,71.44,0,0,0-37,9.74,70.18,70.18,0,0,0-25.91,26.41q-9.41,16.66-9.41,37.8,0,20.79,9.41,37.47a70.18,70.18,0,0,0,25.91,26.41A71.34,71.34,0,0,0,2606.78,1555.08Z" style="fill:#fff"/><path d="M2481.65,748h0A101.67,101.67,0,0,1,2380,849.67h-31.77v325.48a101.67,101.67,0,0,1-101.67,101.67h0V849.67H2113.1V748Z" style="fill:#fff"/><path d="M1802.8,850V961.93H1931a101.67,101.67,0,0,1-101.67,101.67H1802.8v111.2a101.67,101.67,0,0,1-101.67,101.67h0V748.35h309.95A101.67,101.67,0,0,1,1909.41,850Z" style="fill:#fff"/><path d="M3477.87,1175.15h0a101.67,101.67,0,0,1-101.67,101.67H3172.86V748.71h101.67v426.44Z" style="fill:#fff"/><path d="M4442.66,748.71c-145.64,0-263.7,118.06-263.7,263.7s118.06,263.7,263.7,263.7,263.71-118.06,263.71-263.7S4588.3,748.71,4442.66,748.71Zm0,440.56a176.86,176.86,0,1,1,176.87-176.86A176.86,176.86,0,0,1,4442.66,1189.27Z" style="fill:#fff"/><path d="M2730.75,1174.82l24.8-68.15h137.06l61.93,170.15h35.75a50.72,50.72,0,0,0,47.58-68.29h0L2870.49,748.66l-.52.19v-.14h-91.78v.14l-.52-.19-167.38,459.87-25.22,68.29h0A155,155,0,0,0,2730.75,1174.82Zm93.33-256.44L2855.6,1005h-63Z" style="fill:#fff"/><path d="M3952.17,748.71l-123.76,340-123.75-340H3580.24v528.11h0a101.67,101.67,0,0,0,101.67-101.67V983.45l92.41,253.88,2.26,6.22,11.94,32.82,0,.1c2.77.23,5.58.35,8.41.35a101.52,101.52,0,0,0,96.36-69.6l.28,0,81.31-223.72v293.37h0a101.67,101.67,0,0,0,101.67-101.67V748.71Z" style="fill:#fff"/><path d="M1569.5,1007.5l-.34,16v0c-8.38,199.13-172.47,358-373.66,358a372.32,372.32,0,0,1-229.63-78.78c-33.89,25.6-26,65.13-18.74,77.78,81,19,81,87,185,180s209,60,209,60c11-16,50-20,50-20,37-6,92,95,0,106-542.39-24-571.73-529.5-568.88-675.09v-.05q-.75-11.83-.75-23.86c0-206.55,167.45-374,374-374A372.26,372.26,0,0,1,1415.42,705c47.93-24.53,39.08-71.46,31.08-85.46-81-19-81-87-185-180s-209-60-209-60c-11,16-50,20-50,20-37,6-92-95,0-106C1636.5,321.5,1569.5,1007.5,1569.5,1007.5Z" style="fill:#37363b;opacity:0.6000000000000001"/><circle cx="1195.5" cy="1007.5" r="374" style="fill:#37363b"/><polygon points="3439.57 1293.01 3439.76 1293.01 3439.74 1293.07 3439.57 1293.01" style="fill:#006837;opacity:0.72"/><polygon points="3778.97 1293.01 3778.8 1293.07 3778.77 1293.01 3778.97 1293.01" style="fill:#006837;opacity:0.72"/><polygon points="3439.97 1293.01 3439.76 1293.01 3439.93 1292.54 3439.97 1293.01" style="fill:#006837;opacity:0.72"/><polygon points="3778.77 1293.01 3778.57 1293.01 3778.61 1292.54 3778.77 1293.01" style="fill:#006837;opacity:0.72"/><polygon points="4815.48 1290.28 4815.27 1290.28 4815.27 1289.69 4815.48 1290.28" style="fill:#006837;opacity:0.72"/><polygon points="4815.68 1290.28 4815.51 1290.34 4815.48 1290.28 4815.68 1290.28" style="fill:#006837;opacity:0.72"/><polygon points="4799.88 1247.39 4799.79 1247.36 4796.92 1239.47 4796.96 1239.37 4799.88 1247.39" style="fill:#006837;opacity:0.72"/><path d="M1795.3,1572.57q-27.08,0-47.87-11.89a86.29,86.29,0,0,1-32.69-32.68q-11.88-20.8-11.88-47.54,0-27.07,12.21-47.87a88.38,88.38,0,0,1,33.18-32.69q21-11.88,47-11.88,27.06,0,47.7,11.88a86.65,86.65,0,0,1,32.52,32.69q11.89,20.79,11.89,47.87l-11.56,13.2q0,23.11-10.23,40.94a72.87,72.87,0,0,1-28.39,27.9Q1819.06,1572.58,1795.3,1572.57Zm1.32,67q-27.4,0-46.72-10.24a99.28,99.28,0,0,1-31.86-26.08,10.94,10.94,0,0,1-2.64-6.93,7.82,7.82,0,0,1,3.31-6.27,10.27,10.27,0,0,1,7.75-1.65,9.16,9.16,0,0,1,6.77,4.29,82.27,82.27,0,0,0,26.08,20.3q15.86,8.09,37.31,8.09,20.46,0,36.48-9.9a70.33,70.33,0,0,0,25.26-27.24q9.24-17.34,9.24-38.79v-52.5l8.91-12.21h10.9v64.71q0,26.73-11.89,48.2a89.48,89.48,0,0,1-32.35,33.84Q1822.7,1639.59,1796.62,1639.59Zm-1.32-85.51q21.12,0,37.47-9.41a67,67,0,0,0,25.59-26.08q9.24-16.66,9.24-38.13,0-21.8-9.24-38.46a67,67,0,0,0-25.59-26.08q-16.33-9.42-37.47-9.41t-37.64,9.41a66.57,66.57,0,0,0-25.75,26.08q-9.24,16.66-9.24,38.46,0,21.46,9.24,38.13a66.57,66.57,0,0,0,25.75,26.08Q1774.18,1554.08,1795.3,1554.08Z" style="fill:#37363b"/><path d="M1946.83,1570.59a9.59,9.59,0,0,1-9.9-9.91V1399.9a9.48,9.48,0,0,1,2.8-7.26,10,10,0,0,1,7.1-2.64,9.15,9.15,0,0,1,9.91,9.9v160.78a9.94,9.94,0,0,1-2.65,7.1A9.49,9.49,0,0,1,1946.83,1570.59Zm-3.3-110.27q2-21.12,11.55-37.47a71.84,71.84,0,0,1,24.77-25.59,63.49,63.49,0,0,1,33.67-9.24q12.54,0,19.48,3t5.28,10.56q-1,5-4.62,6a20.88,20.88,0,0,1-8.75.16,71.93,71.93,0,0,0-11.39-.82q-16.51,0-29.38,6.93a51.46,51.46,0,0,0-20.14,19,52.4,52.4,0,0,0-7.26,27.57Z" style="fill:#37363b"/><path d="M2150.86,1572.57q-26.42,0-47.38-12a87.94,87.94,0,0,1-33-33q-12.06-21-12-47,0-26.42,12-47.38a88.05,88.05,0,0,1,33-33q21-12,47.38-12t47.21,12a88.5,88.5,0,0,1,32.85,33q12,21,12,47.38,0,26.08-12,47a88.38,88.38,0,0,1-32.85,33Q2177.26,1572.58,2150.86,1572.57Zm0-18.49q20.79,0,37.14-9.74a70.57,70.57,0,0,0,25.75-26.41q9.4-16.67,9.41-37.8,0-20.81-9.41-37.47a70.57,70.57,0,0,0-25.75-26.41q-16.34-9.74-37.14-9.74a71.39,71.39,0,0,0-63.06,36.15q-9.57,16.66-9.57,37.8,0,20.79,9.57,37.47a71.39,71.39,0,0,0,63.06,36.15Z" style="fill:#37363b"/><path d="M2372.71,1572.9q-23.77,0-42.59-9.74a73.07,73.07,0,0,1-29.87-28.56q-11.07-18.81-11.07-45.89V1399.9a9.91,9.91,0,1,1,19.81,0v88.81q0,21.46,8.42,35.82a53.44,53.44,0,0,0,22.78,21.46q14.37,7.11,32.52,7.1,17.84,0,32-6.93a57.87,57.87,0,0,0,22.45-18.66,45.1,45.1,0,0,0,8.25-26.57H2452a73.83,73.83,0,0,1-12.22,36.81,78.3,78.3,0,0,1-28.23,25.75Q2394.17,1572.9,2372.71,1572.9Zm72.63-2.31a9.61,9.61,0,0,1-9.9-9.91V1399.9a9.45,9.45,0,0,1,2.81-7.26,11.08,11.08,0,0,1,14.36,0,9.81,9.81,0,0,1,2.64,7.26v160.78a9.94,9.94,0,0,1-2.64,7.1A9.53,9.53,0,0,1,2445.34,1570.59Z" style="fill:#37363b"/><path d="M2524.57,1647.84a9.59,9.59,0,0,1-9.9-9.9V1478.48q.66-26.09,12.71-46.39a88.7,88.7,0,0,1,32.85-32.19Q2581,1388,2606.78,1388q26.41,0,47.38,12a88.19,88.19,0,0,1,33,33q12,21,12,47.38,0,26.08-12,47a88.08,88.08,0,0,1-33,33q-21,12.06-47.38,12-23.78,0-42.75-10.24a76.34,76.34,0,0,1-29.55-27.4v103a10,10,0,0,1-2.64,7.1A9.56,9.56,0,0,1,2524.57,1647.84Zm82.21-93.76q20.8,0,37.14-9.74a71.85,71.85,0,0,0,25.92-26.41q9.57-16.67,9.57-37.47,0-21.12-9.57-37.8a71.85,71.85,0,0,0-25.92-26.41q-16.34-9.74-37.14-9.74a71.44,71.44,0,0,0-37,9.74,70.18,70.18,0,0,0-25.91,26.41q-9.41,16.66-9.41,37.8,0,20.79,9.41,37.47a70.18,70.18,0,0,0,25.91,26.41A71.34,71.34,0,0,0,2606.78,1554.08Z" style="fill:#37363b"/><path d="M2481.65,747h0A101.67,101.67,0,0,1,2380,848.67h-31.77v325.48a101.67,101.67,0,0,1-101.67,101.67h0V848.67H2113.1V747Z" style="fill:#37363b"/><path d="M1802.8,849V960.93H1931a101.67,101.67,0,0,1-101.67,101.67H1802.8v111.2a101.67,101.67,0,0,1-101.67,101.67h0V747.35h309.95A101.67,101.67,0,0,1,1909.41,849Z" style="fill:#37363b"/><path d="M3477.87,1174.15h0a101.67,101.67,0,0,1-101.67,101.67H3172.86V747.71h101.67v426.44Z" style="fill:#37363b"/><path d="M4442.66,747.71c-145.64,0-263.7,118.06-263.7,263.7s118.06,263.7,263.7,263.7,263.71-118.06,263.71-263.7S4588.3,747.71,4442.66,747.71Zm0,440.56a176.86,176.86,0,1,1,176.87-176.86A176.86,176.86,0,0,1,4442.66,1188.27Z" style="fill:#37363b"/><path d="M2730.75,1173.82l24.8-68.15h137.06l61.93,170.15h35.75a50.72,50.72,0,0,0,47.58-68.29h0L2870.49,747.66l-.52.19v-.14h-91.78v.14l-.52-.19-167.38,459.87-25.22,68.29h0A155,155,0,0,0,2730.75,1173.82Zm93.33-256.44L2855.6,1004h-63Z" style="fill:#37363b"/><path d="M3952.17,747.71l-123.76,340-123.75-340H3580.24v528.11h0a101.67,101.67,0,0,0,101.67-101.67V982.45l92.41,253.88,2.26,6.22,11.94,32.82,0,.1c2.77.23,5.58.35,8.41.35a101.52,101.52,0,0,0,96.36-69.6l.28,0,81.31-223.72v293.37h0a101.67,101.67,0,0,0,101.67-101.67V747.71Z" style="fill:#37363b"/></g></svg>