<svg xmlns="http://www.w3.org/2000/svg" width="191.548" height="69.669" viewBox="0 0 191.548 69.669">
  <g id="Logo" transform="translate(-821.5 -293.5)" opacity="0.8">
    <g id="Сгруппировать_9" data-name="Сгруппировать 9" transform="translate(821.5 293.5)">
      <path id="Контур_1" data-name="Контур 1" d="M858.381,328.7l-.017.787v0a18.441,18.441,0,0,1-29.746,13.767,3.093,3.093,0,0,0-.924,3.835c3.994.937,3.994,4.29,9.121,8.875s10.305,2.958,10.305,2.958c.542-.789,2.465-.986,2.465-.986,1.824-.3,4.536,4.684,0,5.226-26.743-1.181-28.19-26.107-28.049-33.286v0q-.037-.584-.037-1.176a18.442,18.442,0,0,1,29.284-14.917,3.116,3.116,0,0,0,1.532-4.214c-3.994-.937-3.994-4.29-9.122-8.875s-10.3-2.958-10.3-2.958c-.542.789-2.465.986-2.465.986-1.824.3-4.536-4.684,0-5.226C861.684,294.881,858.381,328.7,858.381,328.7Z" transform="translate(-821.5 -293.5)" fill="#39b54a" opacity="0.6"/>
      <ellipse id="Эллипс_3" data-name="Эллипс 3" cx="18" cy="18.5" rx="18" ry="18.5" transform="translate(0.34 16.335)" fill="#39b54a"/>
    </g>
    <text id="group_" data-name="group " transform="translate(863.98 353.12)" fill="#39b54a" font-size="13" font-family="SegoeUI, Segoe UI"><tspan x="0" y="0">group </tspan></text>
    <g id="Сгруппировать_10" data-name="Сгруппировать 10" transform="translate(864.871 315.86)">
      <path id="Контур_2" data-name="Контур 2" d="M2131.275,747h0a5.013,5.013,0,0,1-5.013,5.013H2124.7v16.048a5.013,5.013,0,0,1-5.013,5.013h0V752.013h-6.58V747Z" transform="translate(-2092.791 -747)" fill="#39b54a"/>
      <path id="Контур_3" data-name="Контур 3" d="M1706.145,752.366v5.518h6.318a5.013,5.013,0,0,1-5.013,5.013h-1.305v5.483a5.013,5.013,0,0,1-5.013,5.013h0V747.353h15.282a5.013,5.013,0,0,1-5.013,5.013Z" transform="translate(-1701.132 -747.336)" fill="#39b54a"/>
      <path id="Контур_4" data-name="Контур 4" d="M3187.9,768.732h0a5.013,5.013,0,0,1-5.013,5.013h-10.026V747.706h5.013v21.026Z" transform="translate(-3100.296 -747.671)" fill="#39b54a"/>
      <path id="Контур_5" data-name="Контур 5" d="M4191.963,747.706a13,13,0,1,0,13,13A13,13,0,0,0,4191.963,747.706Zm0,21.723a8.72,8.72,0,1,1,8.721-8.72A8.72,8.72,0,0,1,4191.963,769.429Z" transform="translate(-4056.788 -747.671)" fill="#39b54a"/>
      <path id="Контур_6" data-name="Контур 6" d="M2592.254,768.669l1.223-3.36h6.758l3.054,8.39h1.762a2.5,2.5,0,0,0,2.346-3.367h0l-8.253-22.674-.025.009v-.007h-4.525v.007l-.026-.009-8.253,22.674-1.243,3.367h0A7.644,7.644,0,0,0,2592.254,768.669Zm4.6-12.644,1.554,4.271H2595.3Z" transform="translate(-2541.488 -747.625)" fill="#39b54a"/>
      <path id="Контур_7" data-name="Контур 7" d="M3598.581,747.706l-6.1,16.764-6.1-16.764h-6.134v26.039h0a5.013,5.013,0,0,0,5.013-5.013V759.28l4.556,12.518.112.307.589,1.618v.005q.205.017.415.017a5.006,5.006,0,0,0,4.751-3.432l.014,0,4.009-11.031v14.465h0a5.013,5.013,0,0,0,5.013-5.013V747.706Z" transform="translate(-3487.592 -747.671)" fill="#39b54a"/>
    </g>
  </g>
</svg>
